/* XPM */
static char *Ball1683213986[] = {
/* columns rows colors chars-per-pixel */
"64 64 7 1 ",
"  c None",
". c black",
"X c #2E2EFF",
"o c #5B5BFF",
"O c #8989FF",
"+ c #B6B6FF",
"@ c #E1E1FF",
/* pixels */
"                        ................                        ",
"                        ................                        ",
"                  ......@@@@@+++++++++++......                  ",
"                  ......@@@@@+++++++++++......                  ",
"              ....@@@@@@@@@@@@@@@@++++++++++OO....              ",
"              ....@@@@@@@@@@@@@@@@++++++++++OO....              ",
"            ..@@@@@@@@@@@@@@@@@@@@@@++++++++++OOOO..            ",
"            ..@@@@@@@@@@@@@@@@@@@@@@++++++++++OOOO..            ",
"          ..@@@@@@@@@@@@@@@@@@@@@@@@@@++++++++++OOOO..          ",
"          ..@@@@@@@@@@@@@@@@@@@@@@@@@@++++++++++OOOO..          ",
"        ..@@@@@@@@@@@@@@@@@@@@@@@@@@@@++++++++++++OOOO..        ",
"        ..@@@@@@@@@@@@@@@@@@@@@@@@@@@@++++++++++++OOOO..        ",
"      ..@@@@@@@@@@@@@@@@@@@@@@@@@@@@@@@@++++++++++OOOOOO..      ",
"      ..@@@@@@@@@@@@@@@@@@@@@@@@@@@@@@@@++++++++++OOOOOO..      ",
"    ..++@@@@@@@@@@@@@@@@@@@@@@@@@@@@@@@@++++++++++OOOOOOOO..    ",
"    ..++@@@@@@@@@@@@@@@@@@@@@@@@@@@@@@@@++++++++++OOOOOOOO..    ",
"    ..++@@@@@@@@@@@@@@@@@@@@@@@@@@@@@@@@++++++++++++OOOOOO..    ",
"    ..++@@@@@@@@@@@@@@@@@@@@@@@@@@@@@@@@++++++++++++OOOOOO..    ",
"  ..++++@@@@@@@@@@@@@@@@@@@@@@@@@@@@@@@@++++++++++++OOOOOOOO..  ",
"  ..++++@@@@@@@@@@@@@@@@@@@@@@@@@@@@@@@@++++++++++++OOOOOOOO..  ",
"  ..++++++@@@@@@@@@@@@@@@@@@@@@@@@@@@@++++++++++++++OOOOOOOO..  ",
"  ..++++++@@@@@@@@@@@@@@@@@@@@@@@@@@@@++++++++++++++OOOOOOOO..  ",
"  ..++++++@@@@@@@@@@@@@@@@@@@@@@@@@@@@++++++++++++++OOOOOOOO..  ",
"  ..++++++@@@@@@@@@@@@@@@@@@@@@@@@@@@@++++++++++++++OOOOOOOO..  ",
"..++++++++++@@@@@@@@@@@@@@@@@@@@@@@@++++++++++++++++OOOOOOOOoo..",
"..++++++++++@@@@@@@@@@@@@@@@@@@@@@@@++++++++++++++++OOOOOOOOoo..",
"..++++++++++++@@@@@@@@@@@@@@@@@@@@++++++++++++++++OOOOOOOOOOoo..",
"..++++++++++++@@@@@@@@@@@@@@@@@@@@++++++++++++++++OOOOOOOOOOoo..",
"..++++++++++++++++@@@@@@@@@@@@++++++++++++++++++++OOOOOOOOOOoo..",
"..++++++++++++++++@@@@@@@@@@@@++++++++++++++++++++OOOOOOOOOOoo..",
"..++++++++++++++++++++++++++++++++++++++++++++++++OOOOOOOOOOoo..",
"..++++++++++++++++++++++++++++++++++++++++++++++++OOOOOOOOOOoo..",
"..OO++++++++++++++++++++++++++++++++++++++++++++OOOOOOOOOOoooo..",
"..OO++++++++++++++++++++++++++++++++++++++++++++OOOOOOOOOOoooo..",
"..OOOO++++++++++++++++++++++++++++++++++++++++OOOOOOOOOOOOoooo..",
"..OOOO++++++++++++++++++++++++++++++++++++++++OOOOOOOOOOOOoooo..",
"..OOOOOO++++++++++++++++++++++++++++++++++++OOOOOOOOOOOOoooooo..",
"..OOOOOO++++++++++++++++++++++++++++++++++++OOOOOOOOOOOOoooooo..",
"..OOOOOOOO++++++++++++++++++++++++++++++++OOOOOOOOOOOOOOoooooo..",
"..OOOOOOOO++++++++++++++++++++++++++++++++OOOOOOOOOOOOOOoooooo..",
"  ..OOOOOOOOOO++++++++++++++++++++++++OOOOOOOOOOOOOOOOoooooo..  ",
"  ..OOOOOOOOOO++++++++++++++++++++++++OOOOOOOOOOOOOOOOoooooo..  ",
"  ..OOOOOOOOOOOOOOOO++++++++++++OOOOOOOOOOOOOOOOOOOOoooooooo..  ",
"  ..OOOOOOOOOOOOOOOO++++++++++++OOOOOOOOOOOOOOOOOOOOoooooooo..  ",
"  ..ooOOOOOOOOOOOOOOOOOOOOOOOOOOOOOOOOOOOOOOOOOOOOooooooooXX..  ",
"  ..ooOOOOOOOOOOOOOOOOOOOOOOOOOOOOOOOOOOOOOOOOOOOOooooooooXX..  ",
"    ..ooOOOOOOOOOOOOOOOOOOOOOOOOOOOOOOOOOOOOOOOOoooooooooo..    ",
"    ..ooOOOOOOOOOOOOOOOOOOOOOOOOOOOOOOOOOOOOOOOOoooooooooo..    ",
"    ..ooooooOOOOOOOOOOOOOOOOOOOOOOOOOOOOOOOOooooooooooooXX..    ",
"    ..ooooooOOOOOOOOOOOOOOOOOOOOOOOOOOOOOOOOooooooooooooXX..    ",
"      ..ooooooooOOOOOOOOOOOOOOOOOOOOOOOOooooooooooooooXX..      ",
"      ..ooooooooOOOOOOOOOOOOOOOOOOOOOOOOooooooooooooooXX..      ",
"        ..ooooooooooooooooooooooooooooooooooooooooXXXX..        ",
"        ..ooooooooooooooooooooooooooooooooooooooooXXXX..        ",
"          ..XXooooooooooooooooooooooooooooooooXXXXXX..          ",
"          ..XXooooooooooooooooooooooooooooooooXXXXXX..          ",
"            ..XXXXXXooooooooooooooooooooXXXXXXXXXX..            ",
"            ..XXXXXXooooooooooooooooooooXXXXXXXXXX..            ",
"              ....XXXXXXXXXXXXXXXXXXXXXXXXXXXX....              ",
"              ....XXXXXXXXXXXXXXXXXXXXXXXXXXXX....              ",
"                  ......XXXXXXXXXXXXXXXX......                  ",
"                  ......XXXXXXXXXXXXXXXX......                  ",
"                        ................                        ",
"                        ................                        "
};
