/* XPM */
static char *_63f960861774b6db002ac2df22e1777FhOBjrTmxoK3yqDI[] = {
/* columns rows colors chars-per-pixel */
"64 64 7 1 ",
"  c None",
". c black",
"X c #A0A0A0",
"o c gray72",
"O c #D0D0D0",
"+ c gray91",
"@ c white",
/* pixels */
"                        ................                        ",
"                        ................                        ",
"                  ......++++++++++++++++......                  ",
"                  ......++++++++++++++++......                  ",
"              ....@@@@@@@@@@@@++++++++++++++OO....              ",
"              ....@@@@@@@@@@@@++++++++++++++OO....              ",
"            ..@@@@@@@@@@@@@@@@@@@@++++++++++++OOOO..            ",
"            ..@@@@@@@@@@@@@@@@@@@@++++++++++++OOOO..            ",
"          ..@@@@@@@@@@@@@@@@@@@@@@@@++++++++++++OOOO..          ",
"          ..@@@@@@@@@@@@@@@@@@@@@@@@++++++++++++OOOO..          ",
"        ..@@@@@@@@@@@@@@@@@@@@@@@@@@@@++++++++++++OOOO..        ",
"        ..@@@@@@@@@@@@@@@@@@@@@@@@@@@@++++++++++++OOOO..        ",
"      ..@@@@@@@@@@@@@@@@@@@@@@@@@@@@@@++++++++++++OOOOOO..      ",
"      ..@@@@@@@@@@@@@@@@@@@@@@@@@@@@@@++++++++++++OOOOOO..      ",
"    ..@@@@@@@@@@@@@@@@@@@@@@@@@@@@@@@@@@++++++++++OOOOOOOO..    ",
"    ..@@@@@@@@@@@@@@@@@@@@@@@@@@@@@@@@@@++++++++++OOOOOOOO..    ",
"    ..@@@@@@@@@@@@@@@@@@@@@@@@@@@@@@@@@@++++++++++++OOOOOO..    ",
"    ..@@@@@@@@@@@@@@@@@@@@@@@@@@@@@@@@@@++++++++++++OOOOOO..    ",
"  ..++@@@@@@@@@@@@@@@@@@@@@@@@@@@@@@@@@@++++++++++++OOOOOOOO..  ",
"  ..++@@@@@@@@@@@@@@@@@@@@@@@@@@@@@@@@@@++++++++++++OOOOOOOO..  ",
"  ..++++@@@@@@@@@@@@@@@@@@@@@@@@@@@@@@++++++++++++++OOOOOOOO..  ",
"  ..++++@@@@@@@@@@@@@@@@@@@@@@@@@@@@@@++++++++++++++OOOOOOOO..  ",
"  ..++++@@@@@@@@@@@@@@@@@@@@@@@@@@@@@@++++++++++++++OOOOOOOO..  ",
"  ..++++@@@@@@@@@@@@@@@@@@@@@@@@@@@@@@++++++++++++++OOOOOOOO..  ",
"..++++++++@@@@@@@@@@@@@@@@@@@@@@@@@@++++++++++++++++OOOOOOOOoo..",
"..++++++++@@@@@@@@@@@@@@@@@@@@@@@@@@++++++++++++++++OOOOOOOOoo..",
"..++++++++++@@@@@@@@@@@@@@@@@@@@@@++++++++++++++++OOOOOOOOOOoo..",
"..++++++++++@@@@@@@@@@@@@@@@@@@@@@++++++++++++++++OOOOOOOOOOoo..",
"..++++++++++++++@@@@@@@@@@@@@@++++++++++++++++++++OOOOOOOOOOoo..",
"..++++++++++++++@@@@@@@@@@@@@@++++++++++++++++++++OOOOOOOOOOoo..",
"..++++++++++++++++++++++++++++++++++++++++++++++++OOOOOOOOOOoo..",
"..++++++++++++++++++++++++++++++++++++++++++++++++OOOOOOOOOOoo..",
"..OO++++++++++++++++++++++++++++++++++++++++++++OOOOOOOOOOoooo..",
"..OO++++++++++++++++++++++++++++++++++++++++++++OOOOOOOOOOoooo..",
"..OOOO++++++++++++++++++++++++++++++++++++++++OOOOOOOOOOOOoooo..",
"..OOOO++++++++++++++++++++++++++++++++++++++++OOOOOOOOOOOOoooo..",
"..OOOOOO++++++++++++++++++++++++++++++++++++OOOOOOOOOOOOoooooo..",
"..OOOOOO++++++++++++++++++++++++++++++++++++OOOOOOOOOOOOoooooo..",
"..OOOOOOOO++++++++++++++++++++++++++++++++OOOOOOOOOOOOOOoooooo..",
"..OOOOOOOO++++++++++++++++++++++++++++++++OOOOOOOOOOOOOOoooooo..",
"  ..OOOOOOOOOO++++++++++++++++++++++++OOOOOOOOOOOOOOOOoooooo..  ",
"  ..OOOOOOOOOO++++++++++++++++++++++++OOOOOOOOOOOOOOOOoooooo..  ",
"  ..OOOOOOOOOOOOOOOO++++++++++++OOOOOOOOOOOOOOOOOOOOoooooooo..  ",
"  ..OOOOOOOOOOOOOOOO++++++++++++OOOOOOOOOOOOOOOOOOOOoooooooo..  ",
"  ..ooOOOOOOOOOOOOOOOOOOOOOOOOOOOOOOOOOOOOOOOOOOOOooooooooXX..  ",
"  ..ooOOOOOOOOOOOOOOOOOOOOOOOOOOOOOOOOOOOOOOOOOOOOooooooooXX..  ",
"    ..ooOOOOOOOOOOOOOOOOOOOOOOOOOOOOOOOOOOOOOOOOoooooooooo..    ",
"    ..ooOOOOOOOOOOOOOOOOOOOOOOOOOOOOOOOOOOOOOOOOoooooooooo..    ",
"    ..ooooooOOOOOOOOOOOOOOOOOOOOOOOOOOOOOOOOooooooooooooXX..    ",
"    ..ooooooOOOOOOOOOOOOOOOOOOOOOOOOOOOOOOOOooooooooooooXX..    ",
"      ..ooooooooOOOOOOOOOOOOOOOOOOOOOOOOooooooooooooooXX..      ",
"      ..ooooooooOOOOOOOOOOOOOOOOOOOOOOOOooooooooooooooXX..      ",
"        ..ooooooooooooooooooooooooooooooooooooooooXXXX..        ",
"        ..ooooooooooooooooooooooooooooooooooooooooXXXX..        ",
"          ..XXooooooooooooooooooooooooooooooooXXXXXX..          ",
"          ..XXooooooooooooooooooooooooooooooooXXXXXX..          ",
"            ..XXXXXXooooooooooooooooooooXXXXXXXXXX..            ",
"            ..XXXXXXooooooooooooooooooooXXXXXXXXXX..            ",
"              ....XXXXXXXXXXXXXXXXXXXXXXXXXXXX....              ",
"              ....XXXXXXXXXXXXXXXXXXXXXXXXXXXX....              ",
"                  ......XXXXXXXXXXXXXXXX......                  ",
"                  ......XXXXXXXXXXXXXXXX......                  ",
"                        ................                        ",
"                        ................                        "
};
