/* XPM */
static char *BlockedHole1683213986[] = {
/* columns rows colors chars-per-pixel */
"64 64 5 1 ",
"  c None",
". c black",
"X c gray19",
"o c gray25",
"O c #606060",
/* pixels */
"                                                                ",
"                                                                ",
"                                                                ",
"                                                                ",
"                                                                ",
"                                                                ",
"                                                                ",
"                                                                ",
"                                                                ",
"                                                                ",
"                                                                ",
"                                                                ",
"                                                                ",
"                                                                ",
"                                                                ",
"                                                                ",
"                                                                ",
"                                                                ",
"                                                                ",
"                                                                ",
"                                                                ",
"                                                                ",
"                                                                ",
"                                                                ",
"                                                                ",
"                                                                ",
"                                                                ",
"                                                                ",
"                                                                ",
"                                                                ",
"                                                                ",
"                                                                ",
"                      ....................                      ",
"                      ....................                      ",
"              ........XXXXXXXXXXXXXXXXXXXX........              ",
"              ........XXXXXXXXXXXXXXXXXXXX........              ",
"          ....XXXXXXXXooooooooooooooooooooXXXXXXXX....          ",
"          ....XXXXXXXXooooooooooooooooooooXXXXXXXX....          ",
"      ....XXXXooooooooooOOOOooooooooOOOOooooooooooXXXX....      ",
"      ....XXXXooooooooooOOOOooooooooOOOOooooooooooXXXX....      ",
"    ..XXXXooooOOOOooooooooooooooooooooooooooooOOOOooooXXXX..    ",
"    ..XXXXooooOOOOooooooooooooooooooooooooooooOOOOooooXXXX..    ",
"  ..XXooooooooooooooOOOOooooooooooooooooOOOOooooooooooooooXX..  ",
"  ..XXooooooooooooooOOOOooooooooooooooooOOOOooooooooooooooXX..  ",
"  ..XXooOOOOooooooooooooOOOOooooooooOOOOooooooooooooOOOOooXX..  ",
"  ..XXooOOOOooooooooooooOOOOooooooooOOOOooooooooooooOOOOooXX..  ",
"..XXooooooooooooooooooooooooOOOOooooooooooooooooooooooooooooXX..",
"..XXooooooooooooooooooooooooOOOOooooooooooooooooooooooooooooXX..",
"..XXooooooooooooooooooooooooooooOOOOooooooooooooooooooooooooXX..",
"..XXooooooooooooooooooooooooooooOOOOooooooooooooooooooooooooXX..",
"  ..XXooOOOOooooooooooooOOOOooooooooOOOOooooooooooooOOOOooXX..  ",
"  ..XXooOOOOooooooooooooOOOOooooooooOOOOooooooooooooOOOOooXX..  ",
"  ..XXooooooooooooooOOOOooooooooooooooooOOOOooooooooooooooXX..  ",
"  ..XXooooooooooooooOOOOooooooooooooooooOOOOooooooooooooooXX..  ",
"    ..XXXXooooOOOOooooooooooooooooooooooooooooOOOOooooXXXX..    ",
"    ..XXXXooooOOOOooooooooooooooooooooooooooooOOOOooooXXXX..    ",
"      ....XXXXooooooooooOOOOooooooooOOOOooooooooooXXXX....      ",
"      ....XXXXooooooooooOOOOooooooooOOOOooooooooooXXXX....      ",
"          ....XXXXXXXXooooooooooooooooooooXXXXXXXX....          ",
"          ....XXXXXXXXooooooooooooooooooooXXXXXXXX....          ",
"              ........XXXXXXXXXXXXXXXXXXXX........              ",
"              ........XXXXXXXXXXXXXXXXXXXX........              ",
"                      ....................                      ",
"                      ....................                      "
};
