/* XPM */
static char *BlockedHole1667313805[] = {
/* columns rows colors chars-per-pixel */
"64 64 3 1 ",
"  c None",
". c black",
"X c white",
/* pixels */
"                                                                ",
"                                                                ",
"                                                                ",
"                                                                ",
"                                                                ",
"                                                                ",
"                                                                ",
"                                                                ",
"                                                                ",
"                                                                ",
"                                                                ",
"                                                                ",
"                                                                ",
"                                                                ",
"                                                                ",
"                                                                ",
"                                                                ",
"                                                                ",
"                                                                ",
"                                                                ",
"                                                                ",
"                                                                ",
"                                                                ",
"                                                                ",
"                                                                ",
"                                                                ",
"                                                                ",
"                                                                ",
"                                                                ",
"                                                                ",
"                                                                ",
"                                                                ",
"                      ....................                      ",
"                      ....................                      ",
"              ........XXXXXXXXXXXXXXXXXXXX........              ",
"              ........XXXXXXXXXXXXXXXXXXXX........              ",
"          ....XXXXXXXXXXXXXXXXXXXXXXXXXXXXXXXXXXXX....          ",
"          ....XXXXXXXXXXXXXXXXXXXXXXXXXXXXXXXXXXXX....          ",
"      ....XXXXXXXXXXXXXXXXXXXXXXXXXXXXXXXXXXXXXXXXXXXX....      ",
"      ....XXXXXXXXXXXXXXXXXXXXXXXXXXXXXXXXXXXXXXXXXXXX....      ",
"    ..XXXXXXXXXXXXXXXXXXXXXXXXXXXXXXXXXXXXXXXXXXXXXXXXXXXX..    ",
"    ..XXXXXXXXXXXXXXXXXXXXXXXXXXXXXXXXXXXXXXXXXXXXXXXXXXXX..    ",
"  ..XXXXXXXXXXXXXXXXXXXXXXXX........XXXXXXXXXXXXXXXXXXXXXXXX..  ",
"  ..XXXXXXXXXXXXXXXXXXXXXXXX........XXXXXXXXXXXXXXXXXXXXXXXX..  ",
"  ..XXXXXXXXXXXXXXXXXXXX....XXXXXXXX....XXXXXXXXXXXXXXXXXXXX..  ",
"  ..XXXXXXXXXXXXXXXXXXXX....XXXXXXXX....XXXXXXXXXXXXXXXXXXXX..  ",
"..XXXXXXXXXXXXXXXXXXXX..XXXXXXXXXXXXXXXX..XXXXXXXXXXXXXXXXXXXX..",
"..XXXXXXXXXXXXXXXXXXXX..XXXXXXXXXXXXXXXX..XXXXXXXXXXXXXXXXXXXX..",
"..XXXXXXXXXXXXXXXXXXXX..XXXXXXXXXXXXXXXX..XXXXXXXXXXXXXXXXXXXX..",
"..XXXXXXXXXXXXXXXXXXXX..XXXXXXXXXXXXXXXX..XXXXXXXXXXXXXXXXXXXX..",
"  ..XXXXXXXXXXXXXXXXXXXX....XXXXXXXX....XXXXXXXXXXXXXXXXXXXX..  ",
"  ..XXXXXXXXXXXXXXXXXXXX....XXXXXXXX....XXXXXXXXXXXXXXXXXXXX..  ",
"  ..XXXXXXXXXXXXXXXXXXXXXXXX........XXXXXXXXXXXXXXXXXXXXXXXX..  ",
"  ..XXXXXXXXXXXXXXXXXXXXXXXX........XXXXXXXXXXXXXXXXXXXXXXXX..  ",
"    ..XXXXXXXXXXXXXXXXXXXXXXXXXXXXXXXXXXXXXXXXXXXXXXXXXXXX..    ",
"    ..XXXXXXXXXXXXXXXXXXXXXXXXXXXXXXXXXXXXXXXXXXXXXXXXXXXX..    ",
"      ....XXXXXXXXXXXXXXXXXXXXXXXXXXXXXXXXXXXXXXXXXXXX....      ",
"      ....XXXXXXXXXXXXXXXXXXXXXXXXXXXXXXXXXXXXXXXXXXXX....      ",
"          ....XXXXXXXXXXXXXXXXXXXXXXXXXXXXXXXXXXXX....          ",
"          ....XXXXXXXXXXXXXXXXXXXXXXXXXXXXXXXXXXXX....          ",
"              ........XXXXXXXXXXXXXXXXXXXX........              ",
"              ........XXXXXXXXXXXXXXXXXXXX........              ",
"                      ....................                      ",
"                      ....................                      "
};
