/* XPM */
static char *Cone1683213986[] = {
/* columns rows colors chars-per-pixel */
"64 64 7 1 ",
"  c None",
". c black",
"X c #FF5B5B",
"o c #FF8989",
"O c #FFB6B6",
"+ c #FFCCCC",
"@ c #FFE1E1",
/* pixels */
"                              ....                              ",
"                              ....                              ",
"                            ..++++..                            ",
"                            ..++++..                            ",
"                            ..++++..                            ",
"                            ..++++..                            ",
"                          ..@@++++OO..                          ",
"                          ..@@++++OO..                          ",
"                        ..++@@++++OOoo..                        ",
"                        ..++@@++++OOoo..                        ",
"                        ..@@@@++++OOOO..                        ",
"                        ..@@@@++++OOOO..                        ",
"                      ..++@@@@++++OOOOoo..                      ",
"                      ..++@@@@++++OOOOoo..                      ",
"                    ..OO++@@@@++++OOOOooXX..                    ",
"                    ..OO++@@@@++++OOOOooXX..                    ",
"                    ..++++@@++++++++OOoooo..                    ",
"                    ..++++@@++++++++OOoooo..                    ",
"                  ..OO++@@@@++++++++OOOOooXX..                  ",
"                  ..OO++@@@@++++++++OOOOooXX..                  ",
"                ..OO++++@@@@++++++++OOOOooooXX..                ",
"                ..OO++++@@@@++++++++OOOOooooXX..                ",
"                ..OO++++@@@@++++++++OOOOooooXX..                ",
"                ..OO++++@@@@++++++++OOOOooooXX..                ",
"              ..OOOO++++@@@@++++++++OOOOooooXXXX..              ",
"              ..OOOO++++@@@@++++++++OOOOooooXXXX..              ",
"              ..OO++++@@@@@@++++++++OOOOOOooooXX..              ",
"              ..OO++++@@@@@@++++++++OOOOOOooooXX..              ",
"            ..OOOO++++@@@@@@++++++++OOOOOOooooXXXX..            ",
"            ..OOOO++++@@@@@@++++++++OOOOOOooooXXXX..            ",
"          ..OOOO++++++@@@@@@++++++++OOOOOOooooooXXXX..          ",
"          ..OOOO++++++@@@@@@++++++++OOOOOOooooooXXXX..          ",
"          ..OOOO++++@@@@@@@@++++++++OOOOOOOOooooXXXX..          ",
"          ..OOOO++++@@@@@@@@++++++++OOOOOOOOooooXXXX..          ",
"        ..OOOO++++++@@@@@@++++++++++++OOOOOOooooooXXXX..        ",
"        ..OOOO++++++@@@@@@++++++++++++OOOOOOooooooXXXX..        ",
"      ..OOOOOO++++++@@@@@@++++++++++++OOOOOOooooooXXXXXX..      ",
"      ..OOOOOO++++++@@@@@@++++++++++++OOOOOOooooooXXXXXX..      ",
"      ..OOOO++++++++@@@@@@++++++++++++OOOOOOooooooooXXXX..      ",
"      ..OOOO++++++++@@@@@@++++++++++++OOOOOOooooooooXXXX..      ",
"    ..OOOOOO++++++@@@@@@@@++++++++++++OOOOOOOOooooooXXXXXX..    ",
"    ..OOOOOO++++++@@@@@@@@++++++++++++OOOOOOOOooooooXXXXXX..    ",
"  ..OOOOOOOO++++++@@@@@@@@++++++++++++OOOOOOOOooooooXXXXXXXX..  ",
"  ..OOOOOOOO++++++@@@@@@@@++++++++++++OOOOOOOOooooooXXXXXXXX..  ",
"  ..OOOOOO++++++++@@@@@@@@++++++++++++OOOOOOOOooooooooXXXXXX..  ",
"  ..OOOOOO++++++++@@@@@@@@++++++++++++OOOOOOOOooooooooXXXXXX..  ",
"..OOOOOOOO++++++++@@@@@@@@++++++++++++OOOOOOOOooooooooXXXXXXXX..",
"..OOOOOOOO++++++++@@@@@@@@++++++++++++OOOOOOOOooooooooXXXXXXXX..",
"..OOOOOO++++++++@@@@@@@@@@++++++++++++OOOOOOOOOOooooooooXXXXXX..",
"..OOOOOO++++++++@@@@@@@@@@++++++++++++OOOOOOOOOOooooooooXXXXXX..",
"  ..OOOO++++++++@@@@@@@@@@++++++++++++OOOOOOOOOOooooooooXXXX..  ",
"  ..OOOO++++++++@@@@@@@@@@++++++++++++OOOOOOOOOOooooooooXXXX..  ",
"  ..OO++++++++++@@@@@@@@++++++++++++++++OOOOOOOOooooooooooXX..  ",
"  ..OO++++++++++@@@@@@@@++++++++++++++++OOOOOOOOooooooooooXX..  ",
"    ..++++++++++@@@@@@@@++++++++++++++++OOOOOOOOoooooooooo..    ",
"    ..++++++++++@@@@@@@@++++++++++++++++OOOOOOOOoooooooooo..    ",
"      ....++++@@@@@@@@@@++++++++++++++++OOOOOOOOOOoooo....      ",
"      ....++++@@@@@@@@@@++++++++++++++++OOOOOOOOOOoooo....      ",
"          ....@@@@@@@@@@++++++++++++++++OOOOOOOOOO....          ",
"          ....@@@@@@@@@@++++++++++++++++OOOOOOOOOO....          ",
"              ........@@++++++++++++++++OO........              ",
"              ........@@++++++++++++++++OO........              ",
"                      ....................                      ",
"                      ....................                      "
};
