/* XPM */
static char *Cone1667932430[] = {
/* columns rows colors chars-per-pixel */
"64 64 7 1 ",
"  c None",
". c black",
"X c gray72",
"o c #D0D0D0",
"O c gray91",
"+ c #F4F4F4",
"@ c white",
/* pixels */
"                              ....                              ",
"                              ....                              ",
"                            ..++++..                            ",
"                            ..++++..                            ",
"                            ..++++..                            ",
"                            ..++++..                            ",
"                          ..@@++++OO..                          ",
"                          ..@@++++OO..                          ",
"                        ..++@@++++OOoo..                        ",
"                        ..++@@++++OOoo..                        ",
"                        ..@@@@++++OOOO..                        ",
"                        ..@@@@++++OOOO..                        ",
"                      ..++@@@@++++OOOOoo..                      ",
"                      ..++@@@@++++OOOOoo..                      ",
"                    ..OO++@@@@++++OOOOooXX..                    ",
"                    ..OO++@@@@++++OOOOooXX..                    ",
"                    ..++++@@++++++++OOoooo..                    ",
"                    ..++++@@++++++++OOoooo..                    ",
"                  ..OO++@@@@++++++++OOOOooXX..                  ",
"                  ..OO++@@@@++++++++OOOOooXX..                  ",
"                ..OO++++@@@@++++++++OOOOooooXX..                ",
"                ..OO++++@@@@++++++++OOOOooooXX..                ",
"                ..OO++++@@@@++++++++OOOOooooXX..                ",
"                ..OO++++@@@@++++++++OOOOooooXX..                ",
"              ..OOOO++++@@@@++++++++OOOOooooXXXX..              ",
"              ..OOOO++++@@@@++++++++OOOOooooXXXX..              ",
"              ..OO++++@@@@@@++++++++OOOOOOooooXX..              ",
"              ..OO++++@@@@@@++++++++OOOOOOooooXX..              ",
"            ..OOOO++++@@@@@@++++++++OOOOOOooooXXXX..            ",
"            ..OOOO++++@@@@@@++++++++OOOOOOooooXXXX..            ",
"          ..OOOO++++++@@@@@@++++++++OOOOOOooooooXXXX..          ",
"          ..OOOO++++++@@@@@@++++++++OOOOOOooooooXXXX..          ",
"          ..OOOO++++@@@@@@@@++++++++OOOOOOOOooooXXXX..          ",
"          ..OOOO++++@@@@@@@@++++++++OOOOOOOOooooXXXX..          ",
"        ..OOOO++++++@@@@@@++++++++++++OOOOOOooooooXXXX..        ",
"        ..OOOO++++++@@@@@@++++++++++++OOOOOOooooooXXXX..        ",
"      ..OOOOOO++++++@@@@@@++++++++++++OOOOOOooooooXXXXXX..      ",
"      ..OOOOOO++++++@@@@@@++++++++++++OOOOOOooooooXXXXXX..      ",
"      ..OOOO++++++++@@@@@@++++++++++++OOOOOOooooooooXXXX..      ",
"      ..OOOO++++++++@@@@@@++++++++++++OOOOOOooooooooXXXX..      ",
"    ..OOOOOO++++++@@@@@@@@++++++++++++OOOOOOOOooooooXXXXXX..    ",
"    ..OOOOOO++++++@@@@@@@@++++++++++++OOOOOOOOooooooXXXXXX..    ",
"  ..OOOOOOOO++++++@@@@@@@@++++++++++++OOOOOOOOooooooXXXXXXXX..  ",
"  ..OOOOOOOO++++++@@@@@@@@++++++++++++OOOOOOOOooooooXXXXXXXX..  ",
"  ..OOOOOO++++++++@@@@@@@@++++++++++++OOOOOOOOooooooooXXXXXX..  ",
"  ..OOOOOO++++++++@@@@@@@@++++++++++++OOOOOOOOooooooooXXXXXX..  ",
"..OOOOOOOO++++++++@@@@@@@@++++++++++++OOOOOOOOooooooooXXXXXXXX..",
"..OOOOOOOO++++++++@@@@@@@@++++++++++++OOOOOOOOooooooooXXXXXXXX..",
"..OOOOOO++++++++@@@@@@@@@@++++++++++++OOOOOOOOOOooooooooXXXXXX..",
"..OOOOOO++++++++@@@@@@@@@@++++++++++++OOOOOOOOOOooooooooXXXXXX..",
"  ..OOOO++++++++@@@@@@@@@@++++++++++++OOOOOOOOOOooooooooXXXX..  ",
"  ..OOOO++++++++@@@@@@@@@@++++++++++++OOOOOOOOOOooooooooXXXX..  ",
"  ..OO++++++++++@@@@@@@@++++++++++++++++OOOOOOOOooooooooooXX..  ",
"  ..OO++++++++++@@@@@@@@++++++++++++++++OOOOOOOOooooooooooXX..  ",
"    ..++++++++++@@@@@@@@++++++++++++++++OOOOOOOOoooooooooo..    ",
"    ..++++++++++@@@@@@@@++++++++++++++++OOOOOOOOoooooooooo..    ",
"      ....++++@@@@@@@@@@++++++++++++++++OOOOOOOOOOoooo....      ",
"      ....++++@@@@@@@@@@++++++++++++++++OOOOOOOOOOoooo....      ",
"          ....@@@@@@@@@@++++++++++++++++OOOOOOOOOO....          ",
"          ....@@@@@@@@@@++++++++++++++++OOOOOOOOOO....          ",
"              ........@@++++++++++++++++OO........              ",
"              ........@@++++++++++++++++OO........              ",
"                      ....................                      ",
"                      ....................                      "
};
