/* XPM */
static char *Cube1683213986[] = {
/* columns rows colors chars-per-pixel */
"64 64 7 1 ",
"  c None",
". c black",
"X c #287828",
"o c #785028",
"O c #9D6834",
"+ c #349D34",
"@ c #41C041",
/* pixels */
"                            ........                            ",
"                            ........                            ",
"                        ....@@@@@@@@....                        ",
"                        ....@@@@@@@@....                        ",
"                    ....@@@@@@@@@@@@@@@@....                    ",
"                    ....@@@@@@@@@@@@@@@@....                    ",
"                ....@@@@@@@@@@@@@@@@@@@@@@@@....                ",
"                ....@@@@@@@@@@@@@@@@@@@@@@@@....                ",
"            ....@@@@@@@@@@@@@@@@@@@@@@@@@@@@@@@@....            ",
"            ....@@@@@@@@@@@@@@@@@@@@@@@@@@@@@@@@....            ",
"        ....@@@@@@@@@@@@@@@@@@@@@@@@@@@@@@@@@@@@@@@@....        ",
"        ....@@@@@@@@@@@@@@@@@@@@@@@@@@@@@@@@@@@@@@@@....        ",
"    ....@@@@@@@@@@@@@@@@@@@@@@@@@@@@@@@@@@@@@@@@@@@@@@@@....    ",
"    ....@@@@@@@@@@@@@@@@@@@@@@@@@@@@@@@@@@@@@@@@@@@@@@@@....    ",
"....@@@@@@@@@@@@@@@@@@@@@@@@@@@@@@@@@@@@@@@@@@@@@@@@@@@@@@@@....",
"....@@@@@@@@@@@@@@@@@@@@@@@@@@@@@@@@@@@@@@@@@@@@@@@@@@@@@@@@....",
"....@@@@@@@@@@@@@@@@@@@@@@@@@@@@@@@@@@@@@@@@@@@@@@@@@@@@@@@@....",
"....@@@@@@@@@@@@@@@@@@@@@@@@@@@@@@@@@@@@@@@@@@@@@@@@@@@@@@@@....",
"..++....@@@@@@@@@@@@@@@@@@@@@@@@@@@@@@@@@@@@@@@@@@@@@@@@....XX..",
"..++....@@@@@@@@@@@@@@@@@@@@@@@@@@@@@@@@@@@@@@@@@@@@@@@@....XX..",
"..++++++....@@@@@@@@@@@@@@@@@@@@@@@@@@@@@@@@@@@@@@@@....XXXXXX..",
"..++++++....@@@@@@@@@@@@@@@@@@@@@@@@@@@@@@@@@@@@@@@@....XXXXXX..",
"..++++++++++....@@@@@@@@@@@@@@@@@@@@@@@@@@@@@@@@....XXXXXXXXXX..",
"..++++++++++....@@@@@@@@@@@@@@@@@@@@@@@@@@@@@@@@....XXXXXXXXXX..",
"....++++++++++++....@@@@@@@@@@@@@@@@@@@@@@@@....XXXXXXXXXXXX....",
"....++++++++++++....@@@@@@@@@@@@@@@@@@@@@@@@....XXXXXXXXXXXX....",
"..OO....++++++++++++....@@@@@@@@@@@@@@@@....XXXXXXXXXXXX....oo..",
"..OO....++++++++++++....@@@@@@@@@@@@@@@@....XXXXXXXXXXXX....oo..",
"..OOOOOO....++++++++++++....@@@@@@@@....XXXXXXXXXXXX....oooooo..",
"..OOOOOO....++++++++++++....@@@@@@@@....XXXXXXXXXXXX....oooooo..",
"..OOOOOOOOOO....++++++++++++........XXXXXXXXXXXX....oooooooooo..",
"..OOOOOOOOOO....++++++++++++........XXXXXXXXXXXX....oooooooooo..",
"..OOOOOOOOOOOOOO....++++++++++....XXXXXXXXXX....oooooooooooooo..",
"..OOOOOOOOOOOOOO....++++++++++....XXXXXXXXXX....oooooooooooooo..",
"..OOOOOOOOOOOOOOOOOO....++++++....XXXXXX....oooooooooooooooooo..",
"..OOOOOOOOOOOOOOOOOO....++++++....XXXXXX....oooooooooooooooooo..",
"..OOOOOOOOOOOOOOOOOOOOOO....++....XX....oooooooooooooooooooooo..",
"..OOOOOOOOOOOOOOOOOOOOOO....++....XX....oooooooooooooooooooooo..",
"..OOOOOOOOOOOOOOOOOOOOOOOOOO........oooooooooooooooooooooooooo..",
"..OOOOOOOOOOOOOOOOOOOOOOOOOO........oooooooooooooooooooooooooo..",
"..OOOOOOOOOOOOOOOOOOOOOOOOOOOO....oooooooooooooooooooooooooooo..",
"..OOOOOOOOOOOOOOOOOOOOOOOOOOOO....oooooooooooooooooooooooooooo..",
"..OOOOOOOOOOOOOOOOOOOOOOOOOOOO....oooooooooooooooooooooooooooo..",
"..OOOOOOOOOOOOOOOOOOOOOOOOOOOO....oooooooooooooooooooooooooooo..",
"..OOOOOOOOOOOOOOOOOOOOOOOOOOOO....oooooooooooooooooooooooooooo..",
"..OOOOOOOOOOOOOOOOOOOOOOOOOOOO....oooooooooooooooooooooooooooo..",
"..OOOOOOOOOOOOOOOOOOOOOOOOOOOO....oooooooooooooooooooooooooooo..",
"..OOOOOOOOOOOOOOOOOOOOOOOOOOOO....oooooooooooooooooooooooooooo..",
"....OOOOOOOOOOOOOOOOOOOOOOOOOO....oooooooooooooooooooooooooo....",
"....OOOOOOOOOOOOOOOOOOOOOOOOOO....oooooooooooooooooooooooooo....",
"    ....OOOOOOOOOOOOOOOOOOOOOO....oooooooooooooooooooooo....    ",
"    ....OOOOOOOOOOOOOOOOOOOOOO....oooooooooooooooooooooo....    ",
"        ....OOOOOOOOOOOOOOOOOO....oooooooooooooooooo....        ",
"        ....OOOOOOOOOOOOOOOOOO....oooooooooooooooooo....        ",
"            ....OOOOOOOOOOOOOO....oooooooooooooo....            ",
"            ....OOOOOOOOOOOOOO....oooooooooooooo....            ",
"                ....OOOOOOOOOO....oooooooooo....                ",
"                ....OOOOOOOOOO....oooooooooo....                ",
"                    ....OOOOOO....oooooo....                    ",
"                    ....OOOOOO....oooooo....                    ",
"                        ....OO....oo....                        ",
"                        ....OO....oo....                        ",
"                            ........                            ",
"                            ........                            "
};
