/* XPM */
static char *FlagWhite1683213986[] = {
/* columns rows colors chars-per-pixel */
"64 64 11 1 ",
"  c None",
". c black",
"X c #2E2EFF",
"o c #5B5BFF",
"O c gray51",
"+ c #A0A0A0",
"@ c gray72",
"# c #8989FF",
"$ c #B6B6FF",
"% c #D0D0D0",
"& c gray91",
/* pixels */
"                            ........                            ",
"                            ........                            ",
"                          ..@@%%@@++..                          ",
"                          ..@@%%@@++..                          ",
"                          ..%%&&%%@@..                          ",
"                          ..%%&&%%@@..                          ",
"                          ..@@%%@@++..                          ",
"                          ..@@%%@@++..                          ",
"                          ..++@@++OO..                          ",
"                          ..++@@++OO..                          ",
"                            ........                            ",
"                            ........                            ",
"                            ..@@++........                      ",
"                            ..@@++........                      ",
"                            ..@@++..XXXXoo....      ....        ",
"                            ..@@++..XXXXoo....      ....        ",
"                            ..@@++....XXoo##$$......ooXX..      ",
"                            ..@@++....XXoo##$$......ooXX..      ",
"                            ..@@++..XXXXoo##$$$$$$##ooXX..      ",
"                            ..@@++..XXXXoo##$$$$$$##ooXX..      ",
"                            ..@@++........##$$$$$$##ooXX..      ",
"                            ..@@++........##$$$$$$##ooXX..      ",
"                            ..@@++..      ....$$$$##....        ",
"                            ..@@++..      ....$$$$##....        ",
"                            ..@@++..          ......            ",
"                            ..@@++..          ......            ",
"                            ..@@++..                            ",
"                            ..@@++..                            ",
"                            ..@@++..                            ",
"                            ..@@++..                            ",
"                            ..@@++..                            ",
"                            ..@@++..                            ",
"                            ..@@++..                            ",
"                            ..@@++..                            ",
"                            ..@@++..                            ",
"                            ..@@++..                            ",
"                            ..@@++..                            ",
"                            ..@@++..                            ",
"                            ..@@++..                            ",
"                            ..@@++..                            ",
"                            ..@@++..                            ",
"                            ..@@++..                            ",
"                            ..@@++..                            ",
"                            ..@@++..                            ",
"                            ..@@++..                            ",
"                            ..@@++..                            ",
"                            ..@@++..                            ",
"                            ..@@++..                            ",
"                            ..@@++..                            ",
"                            ..@@++..                            ",
"                              ....                              ",
"                              ....                              ",
"                                                                ",
"                                                                ",
"                                                                ",
"                                                                ",
"                                                                ",
"                                                                ",
"                                                                ",
"                                                                ",
"                                                                ",
"                                                                ",
"                                                                ",
"                                                                "
};
