/* XPM */
static char *ee5e1b28f9a14478eec6edbb5b38d9b8GYJ7VNwIdimKW3uL[] = {
/* columns rows colors chars-per-pixel */
"64 64 7 1 ",
"  c None",
". c black",
"X c #A0A0A0",
"o c gray72",
"O c #D0D0D0",
"+ c gray91",
"@ c white",
/* pixels */
"                            ........                            ",
"                            ........                            ",
"                          ..OO++OOoo..                          ",
"                          ..OO++OOoo..                          ",
"                          ..++@@++OO..                          ",
"                          ..++@@++OO..                          ",
"                          ..OO++OOoo..                          ",
"                          ..OO++OOoo..                          ",
"                          ..ooOOooXX..                          ",
"                          ..ooOOooXX..                          ",
"                            ........                            ",
"                            ........                            ",
"                            ..OOoo........                      ",
"                            ..OOoo........                      ",
"                            ..OOoo..++++@@....      ....        ",
"                            ..OOoo..++++@@....      ....        ",
"                            ..OOoo....++@@@@@@......++OO..      ",
"                            ..OOoo....++@@@@@@......++OO..      ",
"                            ..OOoo..++++@@@@@@@@@@++++OO..      ",
"                            ..OOoo..++++@@@@@@@@@@++++OO..      ",
"                            ..OOoo........@@@@@@@@++++OO..      ",
"                            ..OOoo........@@@@@@@@++++OO..      ",
"                            ..OOoo..      ....@@@@++....        ",
"                            ..OOoo..      ....@@@@++....        ",
"                            ..OOoo..          ......            ",
"                            ..OOoo..          ......            ",
"                            ..OOoo..                            ",
"                            ..OOoo..                            ",
"                            ..OOoo..                            ",
"                            ..OOoo..                            ",
"                            ..OOoo..                            ",
"                            ..OOoo..                            ",
"                            ..OOoo..                            ",
"                            ..OOoo..                            ",
"                            ..OOoo..                            ",
"                            ..OOoo..                            ",
"                            ..OOoo..                            ",
"                            ..OOoo..                            ",
"                            ..OOoo..                            ",
"                            ..OOoo..                            ",
"                            ..OOoo..                            ",
"                            ..OOoo..                            ",
"                            ..OOoo..                            ",
"                            ..OOoo..                            ",
"                            ..OOoo..                            ",
"                            ..OOoo..                            ",
"                            ..OOoo..                            ",
"                            ..OOoo..                            ",
"                            ..OOoo..                            ",
"                            ..OOoo..                            ",
"                              ....                              ",
"                              ....                              ",
"                                                                ",
"                                                                ",
"                                                                ",
"                                                                ",
"                                                                ",
"                                                                ",
"                                                                ",
"                                                                ",
"                                                                ",
"                                                                ",
"                                                                ",
"                                                                "
};
