/* XPM */
static char *HalfBall1683213986[] = {
/* columns rows colors chars-per-pixel */
"64 64 6 1 ",
"  c None",
". c black",
"X c #5B5BFF",
"o c #8989FF",
"O c #B6B6FF",
"+ c #E1E1FF",
/* pixels */
"                                                                ",
"                                                                ",
"                                                                ",
"                                                                ",
"                                                                ",
"                                                                ",
"                                                                ",
"                                                                ",
"                                                                ",
"                                                                ",
"                                                                ",
"                                                                ",
"                                                                ",
"                                                                ",
"                                                                ",
"                                                                ",
"                        ................                        ",
"                        ................                        ",
"                  ......+++++OOOOOOOOOOO......                  ",
"                  ......+++++OOOOOOOOOOO......                  ",
"              ....++++++++++++++++OOOOOOOOOOoo....              ",
"              ....++++++++++++++++OOOOOOOOOOoo....              ",
"            ..++++++++++++++++++++++OOOOOOOOOOoooo..            ",
"            ..++++++++++++++++++++++OOOOOOOOOOoooo..            ",
"          ..++++++++++++++++++++++++++OOOOOOOOOOoooo..          ",
"          ..++++++++++++++++++++++++++OOOOOOOOOOoooo..          ",
"        ..++++++++++++++++++++++++++++OOOOOOOOOOOOoooo..        ",
"        ..++++++++++++++++++++++++++++OOOOOOOOOOOOoooo..        ",
"      ..++++++++++++++++++++++++++++++++OOOOOOOOOOoooooo..      ",
"      ..++++++++++++++++++++++++++++++++OOOOOOOOOOoooooo..      ",
"    ..OO++++++++++++++++++++++++++++++++OOOOOOOOOOoooooooo..    ",
"    ..OO++++++++++++++++++++++++++++++++OOOOOOOOOOoooooooo..    ",
"    ..OO++++++++++++++++++++++++++++++++OOOOOOOOOOOOoooooo..    ",
"    ..OO++++++++++++++++++++++++++++++++OOOOOOOOOOOOoooooo..    ",
"  ..OOOO++++++++++++++++++++++++++++++++OOOOOOOOOOOOoooooooo..  ",
"  ..OOOO++++++++++++++++++++++++++++++++OOOOOOOOOOOOoooooooo..  ",
"  ..OOOOOO++++++++++++++++++++++++++++OOOOOOOOOOOOOOoooooooo..  ",
"  ..OOOOOO++++++++++++++++++++++++++++OOOOOOOOOOOOOOoooooooo..  ",
"  ..OOOOOO++++++++++++++++++++++++++++OOOOOOOOOOOOOOoooooooo..  ",
"  ..OOOOOO++++++++++++++++++++++++++++OOOOOOOOOOOOOOoooooooo..  ",
"..OOOOOOOOOO++++++++++++++++++++++++OOOOOOOOOOOOOOOOooooooooXX..",
"..OOOOOOOOOO++++++++++++++++++++++++OOOOOOOOOOOOOOOOooooooooXX..",
"..OOOOOOOOOOOO++++++++++++++++++++OOOOOOOOOOOOOOOOooooooooooXX..",
"..OOOOOOOOOOOO++++++++++++++++++++OOOOOOOOOOOOOOOOooooooooooXX..",
"..OOOOOOOOOOOOOOOO++++++++++++OOOOOOOOOOOOOOOOOOOOooooooooooXX..",
"..OOOOOOOOOOOOOOOO++++++++++++OOOOOOOOOOOOOOOOOOOOooooooooooXX..",
"..OOOOOOOOOOOOOOOOOOOOOOOOOOOOOOOOOOOOOOOOOOOOOOOOooooooooooXX..",
"..OOOOOOOOOOOOOOOOOOOOOOOOOOOOOOOOOOOOOOOOOOOOOOOOooooooooooXX..",
"..ooOOOOOOOOOOOOOOOOOOOOOOOOOOOOOOOOOOOOOOOOOOOOooooooooooXXXX..",
"..ooOOOOOOOOOOOOOOOOOOOOOOOOOOOOOOOOOOOOOOOOOOOOooooooooooXXXX..",
"  ..ooOOOOOOOOOOOOOOOOOOOOOOOOOOOOOOOOOOOOOOOOooooooooooooXX..  ",
"  ..ooOOOOOOOOOOOOOOOOOOOOOOOOOOOOOOOOOOOOOOOOooooooooooooXX..  ",
"  ..ooooOOOOOOOOOOOOOOOOOOOOOOOOOOOOOOOOOOOOooooooooooooXXXX..  ",
"  ..ooooOOOOOOOOOOOOOOOOOOOOOOOOOOOOOOOOOOOOooooooooooooXXXX..  ",
"    ..ooooOOOOOOOOOOOOOOOOOOOOOOOOOOOOOOOOooooooooooooooXX..    ",
"    ..ooooOOOOOOOOOOOOOOOOOOOOOOOOOOOOOOOOooooooooooooooXX..    ",
"      ....ooooOOOOOOOOOOOOOOOOOOOOOOOOoooooooooooooooo....      ",
"      ....ooooOOOOOOOOOOOOOOOOOOOOOOOOoooooooooooooooo....      ",
"          ....ooooooOOOOOOOOOOOOoooooooooooooooooo....          ",
"          ....ooooooOOOOOOOOOOOOoooooooooooooooooo....          ",
"              ........oooooooooooooooooooo........              ",
"              ........oooooooooooooooooooo........              ",
"                      ....................                      ",
"                      ....................                      "
};
