/* XPM */
static char *_4d35bf974dc4e2fb7e9851c4fb8e7beqAwew3vpgRiC2M6c[] = {
/* columns rows colors chars-per-pixel */
"64 64 6 1 ",
"  c None",
". c black",
"X c gray72",
"o c #D0D0D0",
"O c gray91",
"+ c white",
/* pixels */
"                                                                ",
"                                                                ",
"                                                                ",
"                                                                ",
"                                                                ",
"                                                                ",
"                                                                ",
"                                                                ",
"                                                                ",
"                                                                ",
"                                                                ",
"                                                                ",
"                                                                ",
"                                                                ",
"                                                                ",
"                                                                ",
"                        ................                        ",
"                        ................                        ",
"                  ......OOOOOOOOOOOOOOOO......                  ",
"                  ......OOOOOOOOOOOOOOOO......                  ",
"              ....++++++++++++OOOOOOOOOOOOOOoo....              ",
"              ....++++++++++++OOOOOOOOOOOOOOoo....              ",
"            ..++++++++++++++++++++OOOOOOOOOOOOoooo..            ",
"            ..++++++++++++++++++++OOOOOOOOOOOOoooo..            ",
"          ..++++++++++++++++++++++++OOOOOOOOOOOOoooo..          ",
"          ..++++++++++++++++++++++++OOOOOOOOOOOOoooo..          ",
"        ..++++++++++++++++++++++++++++OOOOOOOOOOOOoooo..        ",
"        ..++++++++++++++++++++++++++++OOOOOOOOOOOOoooo..        ",
"      ..++++++++++++++++++++++++++++++OOOOOOOOOOOOoooooo..      ",
"      ..++++++++++++++++++++++++++++++OOOOOOOOOOOOoooooo..      ",
"    ..++++++++++++++++++++++++++++++++++OOOOOOOOOOoooooooo..    ",
"    ..++++++++++++++++++++++++++++++++++OOOOOOOOOOoooooooo..    ",
"    ..++++++++++++++++++++++++++++++++++OOOOOOOOOOOOoooooo..    ",
"    ..++++++++++++++++++++++++++++++++++OOOOOOOOOOOOoooooo..    ",
"  ..OO++++++++++++++++++++++++++++++++++OOOOOOOOOOOOoooooooo..  ",
"  ..OO++++++++++++++++++++++++++++++++++OOOOOOOOOOOOoooooooo..  ",
"  ..OOOO++++++++++++++++++++++++++++++OOOOOOOOOOOOOOoooooooo..  ",
"  ..OOOO++++++++++++++++++++++++++++++OOOOOOOOOOOOOOoooooooo..  ",
"  ..OOOO++++++++++++++++++++++++++++++OOOOOOOOOOOOOOoooooooo..  ",
"  ..OOOO++++++++++++++++++++++++++++++OOOOOOOOOOOOOOoooooooo..  ",
"..OOOOOOOO++++++++++++++++++++++++++OOOOOOOOOOOOOOOOooooooooXX..",
"..OOOOOOOO++++++++++++++++++++++++++OOOOOOOOOOOOOOOOooooooooXX..",
"..OOOOOOOOOO++++++++++++++++++++++OOOOOOOOOOOOOOOOooooooooooXX..",
"..OOOOOOOOOO++++++++++++++++++++++OOOOOOOOOOOOOOOOooooooooooXX..",
"..OOOOOOOOOOOOOO++++++++++++++OOOOOOOOOOOOOOOOOOOOooooooooooXX..",
"..OOOOOOOOOOOOOO++++++++++++++OOOOOOOOOOOOOOOOOOOOooooooooooXX..",
"..OOOOOOOOOOOOOOOOOOOOOOOOOOOOOOOOOOOOOOOOOOOOOOOOooooooooooXX..",
"..OOOOOOOOOOOOOOOOOOOOOOOOOOOOOOOOOOOOOOOOOOOOOOOOooooooooooXX..",
"..ooOOOOOOOOOOOOOOOOOOOOOOOOOOOOOOOOOOOOOOOOOOOOooooooooooXXXX..",
"..ooOOOOOOOOOOOOOOOOOOOOOOOOOOOOOOOOOOOOOOOOOOOOooooooooooXXXX..",
"  ..ooOOOOOOOOOOOOOOOOOOOOOOOOOOOOOOOOOOOOOOOOooooooooooooXX..  ",
"  ..ooOOOOOOOOOOOOOOOOOOOOOOOOOOOOOOOOOOOOOOOOooooooooooooXX..  ",
"  ..ooooOOOOOOOOOOOOOOOOOOOOOOOOOOOOOOOOOOOOooooooooooooXXXX..  ",
"  ..ooooOOOOOOOOOOOOOOOOOOOOOOOOOOOOOOOOOOOOooooooooooooXXXX..  ",
"    ..ooooOOOOOOOOOOOOOOOOOOOOOOOOOOOOOOOOooooooooooooooXX..    ",
"    ..ooooOOOOOOOOOOOOOOOOOOOOOOOOOOOOOOOOooooooooooooooXX..    ",
"      ....ooooOOOOOOOOOOOOOOOOOOOOOOOOoooooooooooooooo....      ",
"      ....ooooOOOOOOOOOOOOOOOOOOOOOOOOoooooooooooooooo....      ",
"          ....ooooooOOOOOOOOOOOOoooooooooooooooooo....          ",
"          ....ooooooOOOOOOOOOOOOoooooooooooooooooo....          ",
"              ........oooooooooooooooooooo........              ",
"              ........oooooooooooooooooooo........              ",
"                      ....................                      ",
"                      ....................                      "
};
