/* XPM */
static char *_ccab63a504a46d3ef58ffb04c8dce45iCoupMtongEG0yK0[] = {
/* columns rows colors chars-per-pixel */
"64 64 7 1 ",
"  c None",
". c black",
"X c gray25",
"o c #606060",
"O c gray51",
"+ c #989898",
"@ c gray72",
/* pixels */
"                                                                ",
"                                                                ",
"                                                                ",
"                                                                ",
"                                                                ",
"                                                                ",
"                                                                ",
"                                                                ",
"                                                                ",
"                                                                ",
"                                                                ",
"                                                                ",
"                                                                ",
"                                                                ",
"                                                                ",
"                                                                ",
"                                                                ",
"                                                                ",
"                                                                ",
"                                                                ",
"                                                                ",
"                                                                ",
"                                                                ",
"                                                                ",
"                                                                ",
"                                                                ",
"                                                                ",
"                                                                ",
"                                                                ",
"                                                                ",
"                                                                ",
"                                                                ",
"                      ....................                      ",
"                      ....................                      ",
"              ........@@@@@@@@@@@@@@@@@@@@........              ",
"              ........@@@@@@@@@@@@@@@@@@@@........              ",
"          ....@@@@@@@@@@@@@@@@@@@@@@@@@@@@@@@@@@@@....          ",
"          ....@@@@@@@@@@@@@@@@@@@@@@@@@@@@@@@@@@@@....          ",
"      ....@@@@@@@@@@@@++++++++++++++++++++@@@@@@@@@@@@....      ",
"      ....@@@@@@@@@@@@++++++++++++++++++++@@@@@@@@@@@@....      ",
"    ..@@@@@@@@@@++++++++++++++++++++++++++++++++@@@@@@@@@@..    ",
"    ..@@@@@@@@@@++++++++++++++++++++++++++++++++@@@@@@@@@@..    ",
"  ..@@@@@@@@++++++++++++++++++++++++++++++++++++++++@@@@@@@@..  ",
"  ..@@@@@@@@++++++++++++++++++++++++++++++++++++++++@@@@@@@@..  ",
"  ..@@@@++++++++++++++OOOOOOOOOOOOOOOOOOOO++++++++++++++@@@@..  ",
"  ..@@@@++++++++++++++OOOOOOOOOOOOOOOOOOOO++++++++++++++@@@@..  ",
"..@@@@++++++++++OOOOOOOOOOOOOOOOOOOOOOOOOOOOOOOO++++++++++@@@@..",
"..@@@@++++++++++OOOOOOOOOOOOOOOOOOOOOOOOOOOOOOOO++++++++++@@@@..",
"..@@++++++++OOOOOOOOOOOOOOOOOOOOOOOOOOOOOOOOOOOOOOOO++++++++@@..",
"..@@++++++++OOOOOOOOOOOOOOOOOOOOOOOOOOOOOOOOOOOOOOOO++++++++@@..",
"  ..++++OOOOOOOOOOOOOOooooooooooooooooooooOOOOOOOOOOOOOO++++..  ",
"  ..++++OOOOOOOOOOOOOOooooooooooooooooooooOOOOOOOOOOOOOO++++..  ",
"  ..++OOOOOOOOOOooooooooooooooooooooooooooooooooOOOOOOOOOO++..  ",
"  ..++OOOOOOOOOOooooooooooooooooooooooooooooooooOOOOOOOOOO++..  ",
"    ..OOOOOOooooooooooooooooooooooooooooooooooooooooOOOOOO..    ",
"    ..OOOOOOooooooooooooooooooooooooooooooooooooooooOOOOOO..    ",
"      ....ooooooooooooXXXXXXXXXXXXXXXXXXXXoooooooooooo....      ",
"      ....ooooooooooooXXXXXXXXXXXXXXXXXXXXoooooooooooo....      ",
"          ....ooXXXXXXXXXXXXXXXXXXXXXXXXXXXXXXXXoo....          ",
"          ....ooXXXXXXXXXXXXXXXXXXXXXXXXXXXXXXXXoo....          ",
"              ........XXXXXXXXXXXXXXXXXXXX........              ",
"              ........XXXXXXXXXXXXXXXXXXXX........              ",
"                      ....................                      ",
"                      ....................                      "
};
