/* XPM */
static char *Hole1683213986[] = {
/* columns rows colors chars-per-pixel */
"64 64 7 1 ",
"  c None",
". c black",
"X c gray19",
"o c gray25",
"O c #606060",
"+ c gray51",
"@ c #989898",
/* pixels */
"                                                                ",
"                                                                ",
"                                                                ",
"                                                                ",
"                                                                ",
"                                                                ",
"                                                                ",
"                                                                ",
"                                                                ",
"                                                                ",
"                                                                ",
"                                                                ",
"                                                                ",
"                                                                ",
"                                                                ",
"                                                                ",
"                                                                ",
"                                                                ",
"                                                                ",
"                                                                ",
"                                                                ",
"                                                                ",
"                                                                ",
"                                                                ",
"                                                                ",
"                                                                ",
"                                                                ",
"                                                                ",
"                                                                ",
"                                                                ",
"                                                                ",
"                                                                ",
"                      ....................                      ",
"                      ....................                      ",
"              ........@@@@@@@@@@@@@@@@@@@@........              ",
"              ........@@@@@@@@@@@@@@@@@@@@........              ",
"          ....@@@@@@@@@@@@@@@@@@@@@@@@@@@@@@@@@@@@....          ",
"          ....@@@@@@@@@@@@@@@@@@@@@@@@@@@@@@@@@@@@....          ",
"      ....@@@@@@@@@@@@++++++++++++++++++++@@@@@@@@@@@@....      ",
"      ....@@@@@@@@@@@@++++++++++++++++++++@@@@@@@@@@@@....      ",
"    ..@@@@@@@@@@++++++++++++++++++++++++++++++++@@@@@@@@@@..    ",
"    ..@@@@@@@@@@++++++++++++++++++++++++++++++++@@@@@@@@@@..    ",
"  ..@@@@@@@@++++++++++++++++++++++++++++++++++++++++@@@@@@@@..  ",
"  ..@@@@@@@@++++++++++++++++++++++++++++++++++++++++@@@@@@@@..  ",
"  ..@@@@++++++++++++++OOOOOOOOOOOOOOOOOOOO++++++++++++++@@@@..  ",
"  ..@@@@++++++++++++++OOOOOOOOOOOOOOOOOOOO++++++++++++++@@@@..  ",
"..@@@@++++++++++OOOOOOOOOOOOOOOOOOOOOOOOOOOOOOOO++++++++++@@@@..",
"..@@@@++++++++++OOOOOOOOOOOOOOOOOOOOOOOOOOOOOOOO++++++++++@@@@..",
"..@@++++++++OOOOOOOOOOOOOOOOOOOOOOOOOOOOOOOOOOOOOOOO++++++++@@..",
"..@@++++++++OOOOOOOOOOOOOOOOOOOOOOOOOOOOOOOOOOOOOOOO++++++++@@..",
"  ..++++OOOOOOOOOOOOOOooooooooooooooooooooOOOOOOOOOOOOOO++++..  ",
"  ..++++OOOOOOOOOOOOOOooooooooooooooooooooOOOOOOOOOOOOOO++++..  ",
"  ..++OOOOOOOOOOooooooooooooooooooooooooooooooooOOOOOOOOOO++..  ",
"  ..++OOOOOOOOOOooooooooooooooooooooooooooooooooOOOOOOOOOO++..  ",
"    ..OOOOOOooooooooooooooooooooooooooooooooooooooooOOOOOO..    ",
"    ..OOOOOOooooooooooooooooooooooooooooooooooooooooOOOOOO..    ",
"      ....ooooooooooooXXXXXXXXXXXXXXXXXXXXoooooooooooo....      ",
"      ....ooooooooooooXXXXXXXXXXXXXXXXXXXXoooooooooooo....      ",
"          ....ooXXXXXXXXXXXXXXXXXXXXXXXXXXXXXXXXoo....          ",
"          ....ooXXXXXXXXXXXXXXXXXXXXXXXXXXXXXXXXoo....          ",
"              ........XXXXXXXXXXXXXXXXXXXX........              ",
"              ........XXXXXXXXXXXXXXXXXXXX........              ",
"                      ....................                      ",
"                      ....................                      "
};
