/* XPM */
static char *Slab1683213987[] = {
/* columns rows colors chars-per-pixel */
"64 64 7 1 ",
"  c None",
". c black",
"X c #287828",
"o c #785028",
"O c #9D6834",
"+ c #349D34",
"@ c #41C041",
/* pixels */
"                                                                ",
"                                                                ",
"                                                                ",
"                                                                ",
"                                                                ",
"                                                                ",
"                                                                ",
"                                                                ",
"                                                                ",
"                                                                ",
"                                                                ",
"                                                                ",
"                                                                ",
"                                                                ",
"                                                                ",
"                                                                ",
"                            ........                            ",
"                            ........                            ",
"                        ....@@@@@@@@....                        ",
"                        ....@@@@@@@@....                        ",
"                    ....@@@@@@@@@@@@@@@@....                    ",
"                    ....@@@@@@@@@@@@@@@@....                    ",
"                ....@@@@@@@@@@@@@@@@@@@@@@@@....                ",
"                ....@@@@@@@@@@@@@@@@@@@@@@@@....                ",
"            ....@@@@@@@@@@@@@@@@@@@@@@@@@@@@@@@@....            ",
"            ....@@@@@@@@@@@@@@@@@@@@@@@@@@@@@@@@....            ",
"        ....@@@@@@@@@@@@@@@@@@@@@@@@@@@@@@@@@@@@@@@@....        ",
"        ....@@@@@@@@@@@@@@@@@@@@@@@@@@@@@@@@@@@@@@@@....        ",
"    ....@@@@@@@@@@@@@@@@@@@@@@@@@@@@@@@@@@@@@@@@@@@@@@@@....    ",
"    ....@@@@@@@@@@@@@@@@@@@@@@@@@@@@@@@@@@@@@@@@@@@@@@@@....    ",
"....@@@@@@@@@@@@@@@@@@@@@@@@@@@@@@@@@@@@@@@@@@@@@@@@@@@@@@@@....",
"....@@@@@@@@@@@@@@@@@@@@@@@@@@@@@@@@@@@@@@@@@@@@@@@@@@@@@@@@....",
"....@@@@@@@@@@@@@@@@@@@@@@@@@@@@@@@@@@@@@@@@@@@@@@@@@@@@@@@@....",
"....@@@@@@@@@@@@@@@@@@@@@@@@@@@@@@@@@@@@@@@@@@@@@@@@@@@@@@@@....",
"..++....@@@@@@@@@@@@@@@@@@@@@@@@@@@@@@@@@@@@@@@@@@@@@@@@....XX..",
"..++....@@@@@@@@@@@@@@@@@@@@@@@@@@@@@@@@@@@@@@@@@@@@@@@@....XX..",
"..++++++....@@@@@@@@@@@@@@@@@@@@@@@@@@@@@@@@@@@@@@@@....XXXXXX..",
"..++++++....@@@@@@@@@@@@@@@@@@@@@@@@@@@@@@@@@@@@@@@@....XXXXXX..",
"..++++++++++....@@@@@@@@@@@@@@@@@@@@@@@@@@@@@@@@....XXXXXXXXXX..",
"..++++++++++....@@@@@@@@@@@@@@@@@@@@@@@@@@@@@@@@....XXXXXXXXXX..",
"....++++++++++++....@@@@@@@@@@@@@@@@@@@@@@@@....XXXXXXXXXXXX....",
"....++++++++++++....@@@@@@@@@@@@@@@@@@@@@@@@....XXXXXXXXXXXX....",
"..OO....++++++++++++....@@@@@@@@@@@@@@@@....XXXXXXXXXXXX....oo..",
"..OO....++++++++++++....@@@@@@@@@@@@@@@@....XXXXXXXXXXXX....oo..",
"..OOOOOO....++++++++++++....@@@@@@@@....XXXXXXXXXXXX....oooooo..",
"..OOOOOO....++++++++++++....@@@@@@@@....XXXXXXXXXXXX....oooooo..",
"..OOOOOOOOOO....++++++++++++........XXXXXXXXXXXX....oooooooooo..",
"..OOOOOOOOOO....++++++++++++........XXXXXXXXXXXX....oooooooooo..",
"....OOOOOOOOOOOO....++++++++++....XXXXXXXXXX....oooooooooooo....",
"....OOOOOOOOOOOO....++++++++++....XXXXXXXXXX....oooooooooooo....",
"    ....OOOOOOOOOOOO....++++++....XXXXXX....oooooooooooo....    ",
"    ....OOOOOOOOOOOO....++++++....XXXXXX....oooooooooooo....    ",
"        ....OOOOOOOOOOOO....++....XX....oooooooooooo....        ",
"        ....OOOOOOOOOOOO....++....XX....oooooooooooo....        ",
"            ....OOOOOOOOOOOO........oooooooooooo....            ",
"            ....OOOOOOOOOOOO........oooooooooooo....            ",
"                ....OOOOOOOOOO....oooooooooo....                ",
"                ....OOOOOOOOOO....oooooooooo....                ",
"                    ....OOOOOO....oooooo....                    ",
"                    ....OOOOOO....oooooo....                    ",
"                        ....OO....oo....                        ",
"                        ....OO....oo....                        ",
"                            ........                            ",
"                            ........                            "
};
