/* XPM */
static char *_1416b5c81db46ffa8917b6e7a51f03av9CnDpoOx2KzdT1a[] = {
/* columns rows colors chars-per-pixel */
"64 64 5 1 ",
"  c None",
". c black",
"X c #A0A0A0",
"o c #D0D0D0",
"O c white",
/* pixels */
"                                                                ",
"                                                                ",
"                                                                ",
"                                                                ",
"                                                                ",
"                                                                ",
"                                                                ",
"                                                                ",
"                                                                ",
"                                                                ",
"                                                                ",
"                                                                ",
"                                                                ",
"                                                                ",
"                                                                ",
"                                                                ",
"                            ........                            ",
"                            ........                            ",
"                        ....OOOOOOOO....                        ",
"                        ....OOOOOOOO....                        ",
"                    ....OOOOOOOOOOOOOOOO....                    ",
"                    ....OOOOOOOOOOOOOOOO....                    ",
"                ....OOOOOOOOOOOOOOOOOOOOOOOO....                ",
"                ....OOOOOOOOOOOOOOOOOOOOOOOO....                ",
"            ....OOOOOOOOOOOOOOOOOOOOOOOOOOOOOOOO....            ",
"            ....OOOOOOOOOOOOOOOOOOOOOOOOOOOOOOOO....            ",
"        ....OOOOOOOOOOOOOOOOOOOOOOOOOOOOOOOOOOOOOOOO....        ",
"        ....OOOOOOOOOOOOOOOOOOOOOOOOOOOOOOOOOOOOOOOO....        ",
"    ....OOOOOOOOOOOOOOOOOOOOOOOOOOOOOOOOOOOOOOOOOOOOOOOO....    ",
"    ....OOOOOOOOOOOOOOOOOOOOOOOOOOOOOOOOOOOOOOOOOOOOOOOO....    ",
"....OOOOOOOOOOOOOOOOOOOOOOOOOOOOOOOOOOOOOOOOOOOOOOOOOOOOOOOO....",
"....OOOOOOOOOOOOOOOOOOOOOOOOOOOOOOOOOOOOOOOOOOOOOOOOOOOOOOOO....",
"....OOOOOOOOOOOOOOOOOOOOOOOOOOOOOOOOOOOOOOOOOOOOOOOOOOOOOOOO....",
"....OOOOOOOOOOOOOOOOOOOOOOOOOOOOOOOOOOOOOOOOOOOOOOOOOOOOOOOO....",
"..oo....OOOOOOOOOOOOOOOOOOOOOOOOOOOOOOOOOOOOOOOOOOOOOOOO....XX..",
"..oo....OOOOOOOOOOOOOOOOOOOOOOOOOOOOOOOOOOOOOOOOOOOOOOOO....XX..",
"..oooooo....OOOOOOOOOOOOOOOOOOOOOOOOOOOOOOOOOOOOOOOO....XXXXXX..",
"..oooooo....OOOOOOOOOOOOOOOOOOOOOOOOOOOOOOOOOOOOOOOO....XXXXXX..",
"..oooooooooo....OOOOOOOOOOOOOOOOOOOOOOOOOOOOOOOO....XXXXXXXXXX..",
"..oooooooooo....OOOOOOOOOOOOOOOOOOOOOOOOOOOOOOOO....XXXXXXXXXX..",
"..oooooooooooooo....OOOOOOOOOOOOOOOOOOOOOOOO....XXXXXXXXXXXXXX..",
"..oooooooooooooo....OOOOOOOOOOOOOOOOOOOOOOOO....XXXXXXXXXXXXXX..",
"..oooooooooooooooooo....OOOOOOOOOOOOOOOO....XXXXXXXXXXXXXXXXXX..",
"..oooooooooooooooooo....OOOOOOOOOOOOOOOO....XXXXXXXXXXXXXXXXXX..",
"..oooooooooooooooooooooo....OOOOOOOO....XXXXXXXXXXXXXXXXXXXXXX..",
"..oooooooooooooooooooooo....OOOOOOOO....XXXXXXXXXXXXXXXXXXXXXX..",
"..oooooooooooooooooooooooooo........XXXXXXXXXXXXXXXXXXXXXXXXXX..",
"..oooooooooooooooooooooooooo........XXXXXXXXXXXXXXXXXXXXXXXXXX..",
"....oooooooooooooooooooooooooo....XXXXXXXXXXXXXXXXXXXXXXXXXX....",
"....oooooooooooooooooooooooooo....XXXXXXXXXXXXXXXXXXXXXXXXXX....",
"    ....oooooooooooooooooooooo....XXXXXXXXXXXXXXXXXXXXXX....    ",
"    ....oooooooooooooooooooooo....XXXXXXXXXXXXXXXXXXXXXX....    ",
"        ....oooooooooooooooooo....XXXXXXXXXXXXXXXXXX....        ",
"        ....oooooooooooooooooo....XXXXXXXXXXXXXXXXXX....        ",
"            ....oooooooooooooo....XXXXXXXXXXXXXX....            ",
"            ....oooooooooooooo....XXXXXXXXXXXXXX....            ",
"                ....oooooooooo....XXXXXXXXXX....                ",
"                ....oooooooooo....XXXXXXXXXX....                ",
"                    ....oooooo....XXXXXX....                    ",
"                    ....oooooo....XXXXXX....                    ",
"                        ....oo....XX....                        ",
"                        ....oo....XX....                        ",
"                            ........                            ",
"                            ........                            "
};
