/* XPM */
static char *_b04fe7012a340aee63dc2195c6892aeBJGPvnVcPwIkMZsV[] = {
/* columns rows colors chars-per-pixel */
"64 64 3 1 ",
"  c None",
". c black",
"X c white",
/* pixels */
"                                                                ",
"                                                                ",
"                                                                ",
"                                                                ",
"                                                                ",
"                                                                ",
"                                                                ",
"                                                                ",
"                                                                ",
"                                                                ",
"                                                                ",
"                                                                ",
"                                                                ",
"                                                                ",
"                                                                ",
"                                                                ",
"                                                                ",
"                                                                ",
"                                                                ",
"                                                                ",
"                                                                ",
"                                                                ",
"                                                                ",
"                                                                ",
"                                                                ",
"                                                                ",
"                                                                ",
"                                                                ",
"                                                                ",
"                                                                ",
"                                                                ",
"                                                                ",
"                            ........                            ",
"                            ........                            ",
"                        ....XXXXXXXX....                        ",
"                        ....XXXXXXXX....                        ",
"                    ....XXXXXXXXXXXXXXXX....                    ",
"                    ....XXXXXXXXXXXXXXXX....                    ",
"                ....XXXXXXXXXXXXXXXXXXXXXXXX....                ",
"                ....XXXXXXXXXXXXXXXXXXXXXXXX....                ",
"            ....XXXXXXXXXXXXXXXXXXXXXXXXXXXXXXXX....            ",
"            ....XXXXXXXXXXXXXXXXXXXXXXXXXXXXXXXX....            ",
"        ....XXXXXXXXXXXXXXXXXXXXXXXXXXXXXXXXXXXXXXXX....        ",
"        ....XXXXXXXXXXXXXXXXXXXXXXXXXXXXXXXXXXXXXXXX....        ",
"    ....XXXXXXXXXXXXXXXXXXXXXXXXXXXXXXXXXXXXXXXXXXXXXXXX....    ",
"    ....XXXXXXXXXXXXXXXXXXXXXXXXXXXXXXXXXXXXXXXXXXXXXXXX....    ",
"....XXXXXXXXXXXXXXXXXXXXXXXXXXXXXXXXXXXXXXXXXXXXXXXXXXXXXXXX....",
"....XXXXXXXXXXXXXXXXXXXXXXXXXXXXXXXXXXXXXXXXXXXXXXXXXXXXXXXX....",
"....XXXXXXXXXXXXXXXXXXXXXXXXXXXXXXXXXXXXXXXXXXXXXXXXXXXXXXXX....",
"....XXXXXXXXXXXXXXXXXXXXXXXXXXXXXXXXXXXXXXXXXXXXXXXXXXXXXXXX....",
"    ....XXXXXXXXXXXXXXXXXXXXXXXXXXXXXXXXXXXXXXXXXXXXXXXX....    ",
"    ....XXXXXXXXXXXXXXXXXXXXXXXXXXXXXXXXXXXXXXXXXXXXXXXX....    ",
"        ....XXXXXXXXXXXXXXXXXXXXXXXXXXXXXXXXXXXXXXXX....        ",
"        ....XXXXXXXXXXXXXXXXXXXXXXXXXXXXXXXXXXXXXXXX....        ",
"            ....XXXXXXXXXXXXXXXXXXXXXXXXXXXXXXXX....            ",
"            ....XXXXXXXXXXXXXXXXXXXXXXXXXXXXXXXX....            ",
"                ....XXXXXXXXXXXXXXXXXXXXXXXX....                ",
"                ....XXXXXXXXXXXXXXXXXXXXXXXX....                ",
"                    ....XXXXXXXXXXXXXXXX....                    ",
"                    ....XXXXXXXXXXXXXXXX....                    ",
"                        ....XXXXXXXX....                        ",
"                        ....XXXXXXXX....                        ",
"                            ........                            ",
"                            ........                            "
};
